<svg width="31" height="15" viewBox="0 0 31 15" xmlns="http://www.w3.org/2000/svg"><title>955000C9-1CDD-46C9-AD5A-F3E92864E775</title><path d="M10.5 13.804c-.018.205-.125.308-.321.308a.283.283 0 0 1-.208-.087.351.351 0 0 1-.1-.221l-.188-3.228.188-7.005a.31.31 0 0 1 .093-.227.295.295 0 0 1 .215-.094c.089 0 .163.031.22.094a.38.38 0 0 1 .101.227l.214 7.005-.214 3.228zm3.95-.067a.32.32 0 0 1-.12.267c-.08.08-.17.121-.268.121a.38.38 0 0 1-.308-.147.338.338 0 0 1-.08-.228v-.013l-.147-3.161.134-7.755.013-.08c0-.143.058-.25.174-.321a.402.402 0 0 1 .214-.067c.072 0 .143.022.215.067a.353.353 0 0 1 .174.321l.16 7.848-.147 2.826-.013.322zM.47 8.862l.268 1.714-.268 1.687c-.018.08-.058.12-.12.12-.063 0-.103-.04-.121-.12L0 10.576l.228-1.714c.018-.08.058-.12.12-.12.063 0 .103.04.12.12zM1.62 7.804l.348 2.772-.348 2.719c-.018.08-.063.12-.134.12-.08 0-.12-.044-.12-.134l-.309-2.705.308-2.772c0-.08.04-.121.12-.121.072 0 .117.04.135.12zm1.232-.51l.334 3.282-.334 3.174c0 .098-.05.147-.148.147-.089 0-.143-.049-.16-.147l-.282-3.174.282-3.281c.018-.108.071-.161.16-.161.099 0 .148.053.148.16zm1.259-.093l.308 3.375-.308 3.268c-.018.116-.08.174-.188.174-.116 0-.174-.058-.174-.174l-.281-3.268L3.75 7.2c0-.116.058-.174.174-.174.107 0 .17.058.188.174zm1.259.241l.28 3.134-.28 3.295c-.018.142-.09.214-.215.214-.053 0-.1-.02-.14-.06a.209.209 0 0 1-.06-.154l-.269-3.295.268-3.134c0-.054.02-.1.06-.14.04-.04.088-.06.141-.06.125 0 .197.066.215.2zm1.258-1.955l.282 5.089-.282 3.295a.242.242 0 0 1-.066.167.21.21 0 0 1-.161.074c-.143 0-.223-.08-.241-.241l-.241-3.295.24-5.09c.019-.16.099-.24.242-.24a.21.21 0 0 1 .16.073c.045.05.067.105.067.168zm1.26-1.152l.254 6.268-.255 3.268a.246.246 0 0 1-.073.18.246.246 0 0 1-.181.074c-.16 0-.25-.085-.268-.254l-.214-3.268.214-6.268c.018-.17.107-.255.268-.255.071 0 .132.025.18.074.05.05.074.11.074.18zM9.2 3.799l.241 6.777-.241 3.241c-.018.187-.116.281-.295.281-.17 0-.263-.094-.281-.281l-.214-3.241.214-6.777c0-.08.029-.15.087-.207a.269.269 0 0 1 .395 0 .356.356 0 0 1 .094.207zm2.598-.053l.201 6.83-.2 3.2c0 .09-.034.168-.101.235a.321.321 0 0 1-.235.1.31.31 0 0 1-.227-.093.377.377 0 0 1-.108-.241l-.187-3.201.187-6.83a.333.333 0 0 1 .335-.335.333.333 0 0 1 .335.335zM13.125 4l.188 6.59-.188 3.16a.348.348 0 0 1-.107.254.348.348 0 0 1-.255.108.348.348 0 0 1-.254-.108.402.402 0 0 1-.12-.254l-.161-3.16.16-6.59a.415.415 0 0 1 .12-.268.348.348 0 0 1 .255-.107c.099 0 .181.036.248.107.067.072.105.16.114.268zm2.84 6.59l-.188 3.093a.4.4 0 0 1-.12.295.4.4 0 0 1-.295.12.4.4 0 0 1-.295-.12.452.452 0 0 1-.134-.295l-.08-1.527-.08-1.567.16-8.518v-.04a.506.506 0 0 1 .16-.321.426.426 0 0 1 .269-.094.34.34 0 0 1 .2.067.43.43 0 0 1 .215.348l.187 8.558zm14.892-.255c0 1.044-.37 1.935-1.111 2.672a3.662 3.662 0 0 1-2.679 1.105H16.54a.517.517 0 0 1-.294-.148.4.4 0 0 1-.121-.294V1.63c0-.206.125-.353.375-.442a6.466 6.466 0 0 1 2.424-.456c1.741 0 3.25.587 4.527 1.761 1.277 1.174 1.991 2.619 2.143 4.333a3.807 3.807 0 0 1 1.473-.295c1.045 0 1.937.37 2.679 1.112.74.74 1.111 1.638 1.111 2.692z" fill="#323C46" fill-rule="evenodd"/></svg>