<svg width="21" height="25" viewBox="0 0 21 25" xmlns="http://www.w3.org/2000/svg"><title>946DC7CD-2AF3-44B6-ABDE-CED3CEFE36F2</title><path d="M13.004 17.09v2.825c0 .598-.174.898-.522.898-.205 0-.406-.099-.603-.295v-4.031c.197-.197.398-.295.603-.295.348 0 .522.3.522.897zm4.527.013v.616h-1.205v-.616c0-.607.2-.911.603-.911.401 0 .602.304.602.91zm-12.937-2.92h1.433v-1.259H1.848v1.259h1.406v7.62h1.34v-7.62zm3.857 7.62h1.192v-6.616H8.45v5.063c-.268.375-.522.563-.764.563-.16 0-.254-.094-.28-.282-.01-.027-.014-.183-.014-.468v-4.875H6.2v5.236c0 .438.036.763.107.978.107.33.366.495.777.495.428 0 .884-.272 1.366-.817v.724zm5.745-1.982v-2.638c0-.652-.04-1.094-.12-1.326-.152-.5-.469-.75-.951-.75-.446 0-.862.241-1.246.723v-2.906h-1.191v8.88h1.191v-.643c.402.49.817.736 1.246.736.482 0 .8-.245.95-.736.081-.241.121-.688.121-1.34zm4.527-.134v-.174h-1.219c0 .456-.008.728-.026.817-.063.322-.241.483-.536.483-.41 0-.616-.309-.616-.925v-1.165h2.397v-1.38c0-.705-.12-1.222-.361-1.553-.349-.455-.822-.683-1.42-.683-.607 0-1.085.228-1.433.683-.25.33-.375.848-.375 1.554v2.317c0 .705.13 1.223.388 1.553.349.456.83.683 1.447.683.643 0 1.125-.236 1.446-.71.16-.24.255-.482.281-.723.018-.08.027-.339.027-.776zM10.58 7.46V4.647c0-.616-.192-.924-.576-.924-.383 0-.575.308-.575.924V7.46c0 .625.192.937.575.937.384 0 .576-.312.576-.937zm9.63 10.058c0 2.09-.116 3.652-.348 4.687a2.543 2.543 0 0 1-.777 1.326 2.343 2.343 0 0 1-1.366.616c-1.643.188-4.12.282-7.433.282-3.313 0-5.79-.094-7.433-.282a2.374 2.374 0 0 1-1.373-.616 2.448 2.448 0 0 1-.77-1.326c-.232-1-.348-2.562-.348-4.687 0-2.09.116-3.652.348-4.688.125-.526.384-.968.777-1.326a2.429 2.429 0 0 1 1.38-.629c1.633-.179 4.106-.268 7.419-.268 3.312 0 5.79.09 7.433.268a2.45 2.45 0 0 1 1.373.63c.397.357.654.799.77 1.325.232 1 .348 2.563.348 4.688zM6.844.428H8.21L6.59 5.773v3.63H5.25v-3.63c-.125-.66-.397-1.607-.817-2.839-.33-.92-.62-1.754-.87-2.504h1.42l.95 3.522.91-3.522zm4.955 4.46v2.344c0 .723-.125 1.25-.375 1.58-.34.456-.812.684-1.42.684-.598 0-1.066-.228-1.406-.684-.25-.339-.375-.866-.375-1.58V4.888c0-.714.125-1.236.375-1.567.34-.455.808-.683 1.406-.683.608 0 1.08.228 1.42.683.25.33.375.853.375 1.567zm4.487-2.17v6.684h-1.219v-.737c-.473.554-.933.83-1.38.83-.41 0-.674-.165-.79-.495-.071-.214-.107-.55-.107-1.004V2.719h1.219v4.915c0 .295.004.45.013.469.027.196.12.294.282.294.24 0 .495-.192.763-.576V2.72h1.219z" fill="#323C46" fill-rule="evenodd"/></svg>