<svg width="22" height="18" viewBox="0 0 22 18" xmlns="http://www.w3.org/2000/svg"><title>4B86C794-9D96-441A-B3DC-173A7FA7BE87</title><path d="M21.696 2.893a9.065 9.065 0 0 1-2.17 2.236 12.289 12.289 0 0 1-.496 4.038 12.56 12.56 0 0 1-1.546 3.329 13.083 13.083 0 0 1-2.47 2.819c-.956.817-2.108 1.468-3.456 1.955-1.348.487-2.79.73-4.326.73-2.42 0-4.634-.647-6.643-1.942.313.036.661.054 1.045.054 2.009 0 3.799-.616 5.37-1.849a4.218 4.218 0 0 1-2.517-.863 4.231 4.231 0 0 1-1.527-2.137c.294.045.567.067.817.067.384 0 .763-.049 1.138-.147A4.256 4.256 0 0 1 2.431 9.69a4.18 4.18 0 0 1-.985-2.752v-.054c.608.34 1.26.522 1.956.549a4.32 4.32 0 0 1-1.406-1.54 4.215 4.215 0 0 1-.523-2.063c0-.785.197-1.513.59-2.183a12.263 12.263 0 0 0 3.944 3.195c1.549.799 3.207 1.243 4.975 1.332a4.805 4.805 0 0 1-.107-.991c0-1.196.422-2.216 1.266-3.06.843-.844 1.863-1.266 3.06-1.266 1.25 0 2.303.455 3.16 1.366a8.482 8.482 0 0 0 2.746-1.044c-.33 1.026-.964 1.821-1.902 2.383a8.62 8.62 0 0 0 2.491-.67z" fill="#323C46" fill-rule="evenodd"/></svg>