<svg width="21" height="21" viewBox="0 0 21 21" xmlns="http://www.w3.org/2000/svg"><title>F8548BE3-6579-4890-A4AD-69C9E3C70876</title><path d="M19.433.143c.313 0 .58.111.804.335.223.223.334.49.334.803v18.295c0 .312-.111.58-.334.803a1.096 1.096 0 0 1-.804.335h-5.237v-7.968h2.666l.401-3.108h-3.067V7.656c0-.5.105-.875.315-1.125.21-.25.618-.375 1.226-.375l1.634-.013V3.37c-.563-.08-1.358-.121-2.384-.121-1.215 0-2.186.357-2.913 1.071-.728.715-1.092 1.724-1.092 3.027v2.29H8.304v3.108h2.678v7.968H1.138c-.312 0-.58-.111-.803-.335A1.096 1.096 0 0 1 0 19.576V1.28C0 .97.112.701.335.478c.223-.224.49-.335.803-.335h18.295z" fill="#323C46" fill-rule="evenodd"/></svg>