<svg width="21" height="21" viewBox="0 0 21 21" xmlns="http://www.w3.org/2000/svg"><title>83FC3EC8-35D5-462B-A875-D820970562EC</title><path d="M13.714 10.429c0-.947-.335-1.755-1.004-2.425A3.303 3.303 0 0 0 10.286 7c-.947 0-1.755.335-2.424 1.004a3.303 3.303 0 0 0-1.005 2.425c0 .946.335 1.754 1.005 2.424a3.303 3.303 0 0 0 2.424 1.004c.946 0 1.754-.335 2.424-1.004a3.303 3.303 0 0 0 1.004-2.424zm1.848 0c0 1.464-.513 2.71-1.54 3.736-1.026 1.027-2.272 1.54-3.736 1.54-1.465 0-2.71-.513-3.737-1.54-1.027-1.027-1.54-2.272-1.54-3.736 0-1.465.513-2.71 1.54-3.737 1.027-1.027 2.272-1.54 3.737-1.54 1.464 0 2.71.513 3.736 1.54 1.027 1.027 1.54 2.272 1.54 3.737zm1.447-5.492c0 .34-.12.63-.362.871a1.187 1.187 0 0 1-.87.362c-.34 0-.63-.12-.87-.362a1.187 1.187 0 0 1-.362-.87c0-.34.12-.63.361-.871s.531-.362.87-.362c.34 0 .63.12.871.362.241.241.362.531.362.87zm-6.723-2.946L9.26 1.984a72.656 72.656 0 0 0-1.413 0c-.321.005-.752.018-1.292.04-.54.023-1 .068-1.38.134a5.37 5.37 0 0 0-.957.248c-.447.179-.84.438-1.179.777-.34.34-.598.732-.777 1.179a5.37 5.37 0 0 0-.247.957c-.067.38-.112.84-.134 1.38-.023.54-.036.97-.04 1.292a72.66 72.66 0 0 0 0 1.413l.006 1.025-.006 1.024a72.66 72.66 0 0 0 0 1.413c.004.322.017.752.04 1.292.022.54.067 1 .134 1.38.067.38.15.699.247.958.179.446.438.839.777 1.178.34.34.732.598 1.179.777.259.098.578.18.957.248.38.067.84.111 1.38.134.54.022.97.035 1.292.04.322.004.793.004 1.413 0l1.025-.007 1.024.007c.62.004 1.092.004 1.413 0 .322-.005.752-.018 1.293-.04.54-.023 1-.067 1.38-.134.379-.067.698-.15.957-.248.446-.179.839-.438 1.178-.777.34-.34.598-.732.777-1.178a5.37 5.37 0 0 0 .248-.958c.067-.38.111-.84.134-1.38.022-.54.035-.97.04-1.292a72.66 72.66 0 0 0 0-1.413l-.007-1.024.007-1.025a72.66 72.66 0 0 0 0-1.413 49.618 49.618 0 0 0-.04-1.292c-.023-.54-.067-1-.134-1.38a5.37 5.37 0 0 0-.248-.957 3.475 3.475 0 0 0-.777-1.179 3.475 3.475 0 0 0-1.178-.777 5.37 5.37 0 0 0-.958-.248c-.38-.066-.84-.111-1.38-.133-.54-.023-.97-.036-1.292-.04a72.656 72.656 0 0 0-1.413 0l-1.024.006zM20.57 10.43c0 2.044-.022 3.46-.067 4.245-.089 1.857-.642 3.295-1.66 4.313-1.018 1.017-2.456 1.571-4.313 1.66-.785.045-2.2.067-4.245.067s-3.46-.022-4.246-.067c-1.857-.089-3.294-.643-4.312-1.66C.71 17.969.156 16.53.067 14.674.022 13.888 0 12.474 0 10.43s.022-3.46.067-4.246c.09-1.857.643-3.295 1.66-4.312C2.747.853 4.184.299 6.04.21 6.826.165 8.241.143 10.286.143c2.044 0 3.46.022 4.245.067 1.857.09 3.295.643 4.313 1.66 1.018 1.018 1.571 2.456 1.66 4.313.045.786.067 2.2.067 4.246z" fill="#323C46" fill-rule="evenodd"/></svg>