<svg width="32" height="24" viewBox="0 0 32 24" xmlns="http://www.w3.org/2000/svg"><title>840809A8-1883-45D0-92CF-C21C6D3C1E41</title><defs><linearGradient x1="0%" y1="50%" y2="50%" id="a"><stop stop-color="#7E848B" offset="0%"/><stop stop-color="#323C46" offset="100%"/></linearGradient></defs><g fill-rule="nonzero" fill="none"><path d="M10.74 23.412c-.044-.05-.073-.221-.144-.847-.187-1.66-.293-2.562-.593-5.068-.02-.167-.047-.303-.061-.303a.025.025 0 0 0-.026.025c0 .014-.035.254-.08.533-.043.28-.105.712-.138.962-.202 1.526-.248 1.84-.278 1.898-.023.042-.065.064-.126.064-.163 0-.157.023-.422-1.772-.203-1.375-.25-1.678-.325-2.096a4.058 4.058 0 0 0-.071-.35c-.02-.019-.193.22-.376.519-.4.65-.489.765-.7.911a.449.449 0 0 1-.296.097c-.352.004-.541-.312-.714-1.195a46.874 46.874 0 0 1-.296-1.663c-.154-.915-.207-1.11-.434-1.613-.054-.118-.104-.208-.112-.2-.007.008-.085.293-.172.634-.203.793-.251.951-.367 1.196-.258.541-.533.574-.849.1-.131-.197-.246-.479-.508-1.252a59.475 59.475 0 0 0-.246-.715c-.04-.11-.119-.334-.174-.497a2.42 2.42 0 0 0-.128-.325c-.015-.016-.027.08-.027.219 0 .66-.147 1.163-.341 1.163-.159 0-.33-.387-.434-.986-.074-.419-.14-.6-.222-.6-.03 0-.128.085-.218.188-.206.237-.323.31-.498.31-.203 0-.349-.112-.464-.355-.086-.183-.105-.202-.27-.274a3.693 3.693 0 0 0-.366-.131C.05 11.927 0 11.894 0 11.814c0-.04.067-.089.23-.166.247-.117.35-.221.504-.513.133-.25.367-.494.496-.518.207-.039.31.007.578.258.25.235.254.236.306.172.035-.043.065-.179.09-.401.063-.547.173-.932.294-1.033.082-.068.214-.029.291.087.1.148.155.356.2.743.03.267.043.314.063.239.014-.051.089-.352.166-.668.34-1.389.701-2.145 1.022-2.145.229 0 .378.25.668 1.119.276.828.401 1.022.602.93.24-.11.414-.675.66-2.14.141-.844.215-1.194.33-1.57.142-.457.221-.618.356-.72a.475.475 0 0 1 .545-.017c.181.126.539.61.88 1.192.097.166.188.309.201.317.014.009.048-.12.076-.286.06-.348.097-.669.256-2.152.099-.925.176-1.329.303-1.583.082-.165.154-.218.232-.17.083.05.186.283.237.541.038.19.232 1.765.316 2.572.011.107.03.201.044.21.03.019.063-.62.064-1.256 0-.442.054-1.425.108-1.946.102-1.002.25-2.05.33-2.347.13-.483.323-.663.533-.498.172.136.217.316.363 1.478.155 1.222.279 2.893.39 5.253.023.475.048.681.077.648a2.22 2.22 0 0 0 .092-.353c.076-.369.17-.597.298-.723.104-.103.194-.13.362-.107.241.033.329.182.441.753.086.434.267 1.452.349 1.958.027.171.084.387.126.48.08.176.215.375.256.375.013 0 .041-.108.063-.241.13-.796.282-1.132.552-1.222.32-.105.621.11.763.546.045.137.147.514.228.84.08.324.166.628.19.675a.371.371 0 0 0 .138.133c.118.061.18.034.484-.211.238-.192.57-.368.801-.424.322-.078.391-.156.53-.593.151-.473.192-.544.424-.73a1.51 1.51 0 0 0 .292-.308c.048-.082.146-.401.251-.815.205-.806.546-2.012.631-2.228a.308.308 0 0 1 .14-.136c.214-.102.349.015.436.376l.355 1.405c.253.99.333 1.26.43 1.446.066.125.133.228.15.228.055 0 .237-.492.359-.97.171-.67.26-.817.49-.817.206 0 .337.12.415.385.085.287.219 1.01.287 1.557.062.494.302 1.735.382 1.974.019.057.08-.014.26-.3.137-.22.246-.306.349-.277.04.01.15.129.251.269.115.159.199.246.23.24.052-.01.061-.037.26-.724.16-.553.24-.644.465-.528.129.066.17.167.246.59.062.352.137.618.192.68.013.016.074-.021.135-.083.213-.213.448-.226.649-.036.147.138.242.157.488.094.24-.062.715-.269.883-.385.126-.087.146-.125.25-.488a.62.62 0 0 1 .188-.316c.17-.165.21-.245.276-.57.115-.559.19-.73.367-.84.205-.13.433-.029.553.243.066.15.37 1.323.573 2.22.073.32.154.615.181.656.065.1.17.124 1.11.258.436.063.81.128.832.145.062.048.05.264-.016.284-.076.023-.73.102-1.173.143-.403.037-.632.095-.71.18-.096.107-.18.357-.3.885-.155.682-.419 1.722-.5 1.97-.074.226-.137.29-.304.313-.181.024-.323-.013-.388-.102-.03-.043-.105-.247-.165-.454-.146-.51-.275-.754-.551-1.045a5.362 5.362 0 0 1-.355-.415c-.235-.322-.604-.553-.926-.58-.136-.011-.19.003-.379.101-.209.108-.225.112-.308.068a1.14 1.14 0 0 1-.192-.143c-.064-.06-.131-.094-.17-.088-.093.013-.198.185-.24.392-.089.437-.354 1.493-.4 1.591-.058.128-.178.161-.258.072-.071-.081-.41-1.15-.583-1.844-.045-.178-.096-.31-.121-.31-.011 0-.051.055-.09.122a2.796 2.796 0 0 1-.288.357c-.25.271-.4.493-.542.807-.135.298-.156.396-.25 1.154-.17 1.372-.223 1.538-.5 1.538-.226 0-.377-.173-.567-.653-.051-.128-.134-.324-.184-.435-.051-.11-.132-.29-.18-.397-.048-.107-.098-.184-.11-.17-.047.048-.247.73-.462 1.57-.294 1.145-.428 1.608-.496 1.702-.077.107-.298.124-.415.032-.107-.085-.156-.24-.473-1.524a52.22 52.22 0 0 0-.329-1.281 1.265 1.265 0 0 0-.414-.6c-.06-.044-.263-.303-.453-.575-.19-.272-.38-.521-.422-.554a.533.533 0 0 0-.21-.08c-.19-.03-.45-.196-.61-.394-.148-.18-.48-.464-.544-.464-.024 0-.07.12-.118.303-.073.28-.408 1.263-.564 1.652a1.212 1.212 0 0 1-.18.295c-.11.123-.12.128-.301.128-.32 0-.394-.111-.645-.958a8.357 8.357 0 0 0-.183-.574c-.036-.036-.235.208-.235.288 0 .044-.02.182-.045.305-.024.123-.09.462-.144.752-.28 1.492-.435 2.237-.486 2.323-.087.15-.147.174-.247.1-.114-.086-.247-.334-.51-.955a6.526 6.526 0 0 0-.232-.513c-.02.02-.26 2.239-.481 4.47l-.138 1.383c-.041.41-.092.935-.112 1.166-.02.23-.057.458-.081.505-.052.103-.162.113-.243.024z" fill="url(#a)"/><path d="M9.81 2.446l.005 18.299h7.996c1.427 0 2.965-.324 4.2-1.172 1.234-.848 2.123-2.274 2.123-4.208 0-1.433-.405-2.624-1.144-3.48a4.192 4.192 0 0 0-1.63-1.146c.289-.287.52-.596.695-.937.353-.69.453-1.458.453-2.337 0-1.169-.288-2.43-1.156-3.41-.869-.982-2.29-1.608-4.307-1.608H9.809z" fill="#FFF"/><path d="M10.424 3.055l.007 17.06h7.375c2.661 0 5.701-1.247 5.701-4.756 0-2.639-1.46-4.111-3.56-4.339 1.55-.949 1.932-1.906 1.932-3.57 0-2.134-1.051-4.396-4.84-4.396h-6.615zM14.87 6.45l1.11.01c.483.004 1.815.222 1.815 1.62 0 1.392-1.211 1.702-2.046 1.702h-.879V6.45zm0 6.605h2.05c1.24.164 2.08.589 2.08 1.872 0 1.402-1.034 1.756-2.633 1.827h-1.497v-3.7z" fill="#303030"/></g></svg>